# xmcd
#
# Track frame offsets: 
#        150
#        23455
#        45550
#        69017
#        93195
#        119970
#        144450
#        160735
#        181735
#        205440
#        227727
#        244477
#        265802
#        287212
#        304595
#
# Disc length: 4394 seconds
#
# Revision: 1
# Processed by: cddbd v1.5.2PL0 Copyright (c) Steve Scherf et al.
# Submitted via: ExactAudioCopy v1.0b4
#
DISCID=cd11280f
DTITLE=Tony Joe White - The Very Best
DYEAR=1995
DGENRE=Blues
TTITLE0=The Beach Life
TTITLE1=I Want to Be With You
TTITLE2=Ain`t Going Down This Time
TTITLE3=Like Placid Blues
TTITLE4=The Other Side
TTITLE5=Always The Song
TTITLE6=2 Hot 4 U
TTITLE7=Bayou Woman
TTITLE8=Good in Blues
TTITLE9=Catawalling Alley in Nice
TTITLE10=Paris Mood Tonight
TTITLE11=Louisiana Rain
TTITLE12=Let The Healing Begin
TTITLE13=Bare Necessities
TTITLE14=The Guitar Don`t Lie
EXTD=
EXTT0=
EXTT1=
EXTT2=
EXTT3=
EXTT4=
EXTT5=
EXTT6=
EXTT7=
EXTT8=
EXTT9=
EXTT10=
EXTT11=
EXTT12=
EXTT13=
EXTT14=
PLAYORDER=
